# SSTK version 0.8.0
# 2
mtllib original-2.mtl
o mesh2/mesh2-geometry#mesh2-geometry
v 0.612512 0.099686 0.174805
v 0.654781 -0.013083 -0.544832
v 0.609831 -0.013083 0.176560
v 0.653910 0.099686 -0.489575
v 0.648721 -0.013970 0.178983
v 0.651402 0.098799 0.177228
v 0.654755 0.100107 -0.502990
v 0.693671 -0.013970 -0.542409
v 0.692800 0.098799 -0.487152
v 0.655612 0.101368 -0.516280
v 0.656273 -0.003845 -0.565388
v 0.693645 0.099220 -0.500567
v 0.656476 0.103461 -0.529369
v 0.695163 -0.004732 -0.562965
v 0.658201 0.110093 -0.554641
v 0.694502 0.100481 -0.513857
v 0.657340 0.106375 -0.542181
v 0.657739 0.006430 -0.585165
v 0.697091 0.109206 -0.552218
v 0.659054 0.114592 -0.566678
v 0.695365 0.102575 -0.526946
v 0.696629 0.005543 -0.582742
v 0.696230 0.105488 -0.539757
v 0.697944 0.113706 -0.564255
v 0.659176 0.017704 -0.604090
v 0.659893 0.119848 -0.578223
v 0.698066 0.016817 -0.601667
v 0.660714 0.125830 -0.589208
v 0.698783 0.118961 -0.575799
v 0.660577 0.029936 -0.622095
v 0.699604 0.124943 -0.586785
v 0.661512 0.132502 -0.599570
v 0.699466 0.029049 -0.619671
v 0.662282 0.139828 -0.609250
v 0.700402 0.131616 -0.597147
v 0.661937 0.043082 -0.639112
v 0.701172 0.138941 -0.606827
v 0.663020 0.147764 -0.618191
v 0.700827 0.042195 -0.636689
v 0.663722 0.156264 -0.626341
v 0.701910 0.146877 -0.615768
v 0.663251 0.057093 -0.655081
v 0.702612 0.155377 -0.623918
v 0.669925 0.156264 -0.725890
v 0.702141 0.056206 -0.652657
v 0.708815 0.155377 -0.723467
v 0.664515 0.071917 -0.669942
v 0.703405 0.071030 -0.667518
v 0.665724 0.087502 -0.683641
v 0.668978 0.138234 -0.717292
v 0.704614 0.086615 -0.681218
v 0.666874 0.103790 -0.696129
v 0.707868 0.137347 -0.714869
v 0.667960 0.120721 -0.707360
v 0.705764 0.102903 -0.693706
v 0.667402 0.112016 -0.701586
v 0.706850 0.119834 -0.704937
v 0.706291 0.111130 -0.699163
vn -0.9978058952618173 0.02275499761144217 -0.062173993473689494
vn 0.9978058952618173 -0.02275499761144217 0.062173993473689494
vn -0.02271100160309017 -0.9997410705682256 -0.0014150000998801302
vn -0.061795004660548526 0.017000001282131423 0.997944075264446
vn 0.02271100160309017 0.9997410705682256 0.0014150000998801302
vn 0.020751990376463837 0.9992505366071639 0.03267598484682618
vn 0.018757991850170155 0.9977655664983941 0.06412497213946931
vn 0.006589999993749386 -0.9002859991460787 -0.43524899958716656
vn 0.004719999090010223 -0.9122418241248105 -0.409624921026576
vn 0.014691999113095463 0.9917699401303217 0.12718699232216688
vn 0.010508000795235022 0.9816070742870446 0.19062301442615986
vn 0.010353995238612846 -0.8738975981295429 -0.48599977650819437
vn 0.006205000733043317 0.9670881142493786 0.25436603005016883
vn 0.0017839999885101482 0.947983993894509 0.31831299794990536
vn -0.002748998776000321 0.9240325885718095 0.382303829778111
vn 0.014170998932505773 -0.8439129364284627 -0.5362929596013212
vn -0.00738800098175827 0.8949461189253703 0.4461130592819611
vn 0.018031001161503038 -0.8101870521898209 -0.5858940377415377
vn -0.012120997590091378 0.8604238289296908 0.5094348987136543
vn -0.01693000753079916 0.8201693648274079 0.5718702543790974
vn 0.02191899890535426 -0.772593961416272 -0.6345219683116566
vn -0.021788007891999174 0.7739152803257087 0.6329142292526515
vn -0.026662999583070682 0.721450988718671 0.691951989179947
vn 0.025815992380914383 -0.7310327842499607 -0.6818537987641772
vn -0.02907601080899449 0.6930662576470824 0.7202872677664816
vn 0.029701005850356208 -0.6854431350151747 -0.7275201433032944
vn 0.046273994414960586 -0.43193494786761444 -0.9007168912879815
vn 0.04456598729677909 -0.4636388678430048 -0.884902747764702
vn 0.033549000567481356 -0.6358150107548108 -0.77111201304336
vn 0.03733100792533649 -0.5822041236013661 -0.8121851724261182
vn 0.04101397661480103 -0.5247407008052689 -0.8502735151941613
vn 0.03917800009610363 -0.5540830013591653 -0.8315390020397653
vn 0.061795004660548526 -0.017000001282131423 -0.997944075264446
vn -0.020751990376463837 -0.9992505366071639 -0.03267598484682618
vn -0.018757991850170155 -0.9977655664983941 -0.06412497213946931
vn -0.004719999090010223 0.9122418241248105 0.409624921026576
vn -0.006589999993749386 0.9002859991460787 0.43524899958716656
vn -0.014691999113095463 -0.9917699401303217 -0.12718699232216688
vn -0.010508000795235022 -0.9816070742870446 -0.19062301442615986
vn -0.010353995238612846 0.8738975981295429 0.48599977650819437
vn -0.006205000733043317 -0.9670881142493786 -0.25436603005016883
vn -0.0017839999885101482 -0.947983993894509 -0.31831299794990536
vn 0.002748998776000321 -0.9240325885718095 -0.382303829778111
vn -0.014170998932505773 0.8439129364284627 0.5362929596013212
vn 0.00738800098175827 -0.8949461189253703 -0.4461130592819611
vn -0.018031001161503038 0.8101870521898209 0.5858940377415377
vn 0.012120997590091378 -0.8604238289296908 -0.5094348987136543
vn 0.01693000753079916 -0.8201693648274079 -0.5718702543790974
vn -0.02191899890535426 0.772593961416272 0.6345219683116566
vn 0.021788007891999174 -0.7739152803257087 -0.6329142292526515
vn 0.026662999583070682 -0.721450988718671 -0.691951989179947
vn -0.025815992380914383 0.7310327842499607 0.6818537987641772
vn 0.02907601080899449 -0.6930662576470824 -0.7202872677664816
vn -0.029701005850356208 0.6854431350151747 0.7275201433032944
vn -0.046273994414960586 0.43193494786761444 0.9007168912879815
vn -0.04456598729677909 0.4636388678430048 0.884902747764702
vn -0.033549000567481356 0.6358150107548108 0.77111201304336
vn -0.03733100792533649 0.5822041236013661 0.8121851724261182
vn -0.04101397661480103 0.5247407008052689 0.8502735151941613
vn -0.03917800009610363 0.5540830013591653 0.8315390020397653
usemtl material_0_0
f 1//1 2//1 3//1
f 2//1 1//1 4//1
f 3//2 2//2 1//2
f 4//2 1//2 2//2
f 2//3 5//3 3//3
f 3//4 6//4 1//4
f 6//5 4//5 1//5
f 2//1 4//1 7//1
f 7//2 4//2 2//2
f 5//3 2//3 8//3
f 6//4 3//4 5//4
f 4//5 6//5 9//5
f 9//6 7//7 4//6
f 2//1 7//1 10//1
f 10//2 7//2 2//2
f 11//8 8//9 2//9
f 8//2 6//2 5//2
f 6//2 8//2 9//2
f 7//7 9//6 12//7
f 12//7 10//10 7//7
f 2//1 10//1 13//1
f 13//2 10//2 2//2
f 8//9 11//8 14//8
f 2//1 15//1 11//1
f 11//2 15//2 2//2
f 9//2 8//2 12//2
f 10//10 12//7 16//10
f 16//10 13//11 10//10
f 2//1 13//1 17//1
f 17//2 13//2 2//2
f 18//12 14//8 11//8
f 19//2 8//2 14//2
f 2//1 17//1 15//1
f 15//2 17//2 2//2
f 11//1 15//1 20//1
f 20//2 15//2 11//2
f 12//2 8//2 16//2
f 13//11 16//10 21//11
f 21//11 17//13 13//11
f 14//8 18//12 22//12
f 11//1 20//1 18//1
f 18//2 20//2 11//2
f 23//2 8//2 19//2
f 19//2 14//2 24//2
f 23//13 15//14 17//13
f 19//14 20//15 15//14
f 16//2 8//2 21//2
f 17//13 21//11 23//13
f 25//16 22//12 18//12
f 24//2 14//2 22//2
f 18//1 20//1 26//1
f 26//2 20//2 18//2
f 21//2 8//2 23//2
f 15//14 23//13 19//14
f 20//15 19//14 24//15
f 22//12 25//16 27//16
f 18//1 28//1 25//1
f 25//2 28//2 18//2
f 24//2 22//2 29//2
f 24//15 26//17 20//15
f 18//1 26//1 28//1
f 28//2 26//2 18//2
f 30//18 27//16 25//16
f 31//2 22//2 27//2
f 25//1 28//1 32//1
f 32//2 28//2 25//2
f 29//2 22//2 31//2
f 26//17 24//15 29//17
f 29//17 28//19 26//17
f 27//16 30//18 33//18
f 25//1 34//1 30//1
f 30//2 34//2 25//2
f 31//2 27//2 35//2
f 31//19 32//20 28//19
f 25//1 32//1 34//1
f 34//2 32//2 25//2
f 28//19 29//17 31//19
f 36//21 33//18 30//18
f 37//2 27//2 33//2
f 30//1 34//1 38//1
f 38//2 34//2 30//2
f 35//2 27//2 37//2
f 32//20 31//19 35//20
f 35//20 34//22 32//20
f 33//18 36//21 39//21
f 30//1 40//1 36//1
f 36//2 40//2 30//2
f 37//2 33//2 41//2
f 37//22 38//23 34//22
f 30//1 38//1 40//1
f 40//2 38//2 30//2
f 34//22 35//20 37//22
f 42//24 39//21 36//21
f 43//2 33//2 39//2
f 36//1 40//1 44//1
f 44//2 40//2 36//2
f 41//2 33//2 43//2
f 38//23 37//22 41//23
f 38//23 43//25 40//25
f 39//21 42//24 45//24
f 36//1 44//1 42//1
f 42//2 44//2 36//2
f 43//2 39//2 46//2
f 43//5 44//5 40//5
f 43//25 38//23 41//23
f 47//26 45//24 42//24
f 46//2 39//2 45//2
f 42//1 44//1 47//1
f 47//2 44//2 42//2
f 44//5 43//5 46//5
f 45//24 47//26 48//26
f 46//2 45//2 48//2
f 47//1 44//1 49//1
f 49//2 44//2 47//2
f 46//27 50//28 44//27
f 47//26 51//29 48//26
f 46//2 48//2 51//2
f 49//1 44//1 52//1
f 52//2 44//2 49//2
f 51//29 47//26 49//29
f 50//28 46//27 53//28
f 54//1 44//1 50//1
f 50//2 44//2 54//2
f 46//2 51//2 55//2
f 52//1 44//1 56//1
f 56//2 44//2 52//2
f 55//30 49//29 52//30
f 49//29 55//30 51//29
f 46//2 57//2 53//2
f 53//28 54//31 50//28
f 56//1 44//1 54//1
f 54//2 44//2 56//2
f 46//2 55//2 58//2
f 58//32 52//30 56//32
f 52//30 58//32 55//30
f 46//2 58//2 57//2
f 54//31 53//28 57//31
f 57//31 56//32 54//31
f 56//32 57//31 58//32
usemtl material_1_0
f 3//5 5//5 2//5
f 1//33 6//33 3//33
f 1//3 4//3 6//3
f 8//5 2//5 5//5
f 5//33 3//33 6//33
f 9//3 6//3 4//3
f 4//34 7//35 9//34
f 2//36 8//36 11//37
f 5//1 6//1 8//1
f 9//1 8//1 6//1
f 12//35 9//34 7//35
f 7//35 10//38 12//35
f 14//37 11//37 8//36
f 12//1 8//1 9//1
f 16//38 12//35 10//38
f 10//38 13//39 16//38
f 11//37 14//37 18//40
f 14//1 8//1 19//1
f 16//1 8//1 12//1
f 21//39 16//38 13//39
f 13//39 17//41 21//39
f 22//40 18//40 14//37
f 19//1 8//1 23//1
f 24//1 14//1 19//1
f 17//41 15//42 23//41
f 15//42 20//43 19//42
f 21//1 8//1 16//1
f 23//41 21//39 17//41
f 18//40 22//40 25//44
f 22//1 14//1 24//1
f 23//1 8//1 21//1
f 19//42 23//41 15//42
f 24//43 19//42 20//43
f 27//44 25//44 22//40
f 29//1 22//1 24//1
f 20//43 26//45 24//43
f 25//44 27//44 30//46
f 27//1 22//1 31//1
f 31//1 22//1 29//1
f 29//45 24//43 26//45
f 26//45 28//47 29//45
f 33//46 30//46 27//44
f 35//1 27//1 31//1
f 28//47 32//48 31//47
f 31//47 29//45 28//47
f 30//46 33//46 36//49
f 33//1 27//1 37//1
f 37//1 27//1 35//1
f 35//48 31//47 32//48
f 32//48 34//50 35//48
f 39//49 36//49 33//46
f 41//1 33//1 37//1
f 34//50 38//51 37//50
f 37//50 35//48 34//50
f 36//49 39//49 42//52
f 39//1 33//1 43//1
f 43//1 33//1 41//1
f 41//51 37//50 38//51
f 40//53 43//53 38//51
f 45//52 42//52 39//49
f 46//1 39//1 43//1
f 40//3 44//3 43//3
f 41//51 38//51 43//53
f 42//52 45//52 47//54
f 45//1 39//1 46//1
f 46//3 43//3 44//3
f 48//54 47//54 45//52
f 48//1 45//1 46//1
f 44//55 50//56 46//55
f 48//54 51//57 47//54
f 51//1 48//1 46//1
f 49//57 47//54 51//57
f 53//56 46//55 50//56
f 55//1 51//1 46//1
f 52//58 49//57 55//58
f 51//57 55//58 49//57
f 53//1 57//1 46//1
f 50//56 54//59 53//56
f 58//1 55//1 46//1
f 56//60 52//58 58//60
f 55//58 58//60 52//58
f 57//1 58//1 46//1
f 57//59 53//56 54//59
f 54//59 56//60 57//59
f 58//60 57//59 56//60
