# Blender v2.91.0 OBJ File: ''
# www.blender.org
mtllib tip.mtl
o Cube
v -0.020000 -0.001500 -0.002500
v -0.020000 0.001500 -0.002500
v 0.020000 -0.001500 -0.002500
v 0.020000 0.001500 -0.002500
v -0.020000 0.000000 0.002500
v 0.020000 -0.000000 0.002500
v -0.020000 0.001500 -0.002444
vt 0.875000 0.625000
vt 0.625000 0.625000
vt 0.375000 0.500000
vt 0.375000 0.250000
vt 0.125000 0.500000
vt 0.375000 0.750000
vt 0.125000 0.750000
vt 0.377787 0.750000
vt 0.375000 0.000000
vt 0.625000 0.125000
vt 0.375000 1.000000
vn -0.0000 -0.9578 0.2873
vn -0.0000 -0.0000 -1.0000
vn -1.0000 -0.0000 0.0000
vn 1.0000 0.0000 0.0000
vn 0.0002 0.9578 0.2873
usemtl Material
s off
f 6/1/1 5/2/1 1/3/1 3/4/1
f 3/5/2 1/3/2 2/6/2 4/7/2
f 1/3/3 5/2/3 7/8/3 2/6/3
f 3/4/4 4/9/4 6/10/4
f 2/6/5 7/8/5 5/2/5 6/10/5 4/11/5
